# xmcd
#
# Track frame offsets:
#	150
#	22067
#	39125
#	60005
#	82585
#	92422
#	110680
#	128125
#	147467
#	162075
#	172775
#	195415
#
# Disc length: 2845 seconds
#
# Revision: 6
# Processed by: cddbd v1.5.2PL0 Copyright (c) Steve Scherf et al.
# Submitted via: EasyCDDAExtractor 2010.6.0.0
#
DISCID=820b1b0c
DTITLE=김동률 - 2집 희망
DYEAR=2000
DGENRE=Ballad
TTITLE0=2년만에
TTITLE1=프로보즈
TTITLE2=벽 featuring 양파
TTITLE3=악몽
TTITLE4=크리스마스 악몽
TTITLE5=한여름밤의 꿈
TTITLE6=輪廻 instrumental
TTITLE7=염원
TTITLE8=님
TTITLE9=모험
TTITLE10=편지
TTITLE11=희망
EXTD=
EXTT0=
EXTT1=
EXTT2=
EXTT3=
EXTT4=
EXTT5=
EXTT6=
EXTT7=
EXTT8=
EXTT9=
EXTT10=
EXTT11=
PLAYORDER=
